PathFileType	4	(X/Y/Z)	SUBJ24_1_walk_RCNL2025.trc
DataRate	CameraRate	NumFrames	NumMarkers	Units	OrigDataRate	OrigDataStartFrame	OrigNumFrames
100	100	12	25	mm	100	42	335
Frame#	Time	R_Shoulder			L_Shoulder			C7			J_Notch			R_Elbow			L_Elbow			R_Wrist			L_Wrist			R_Asis			L_Asis			Sacral			Thoracic			Sternum			R_Thigh_Lateral			R_Knee_Lateral			R_Shank_Lateral			R_Ankle_Lateral			R_Heel			R_Toe			L_Thigh_Lateral			L_Knee_Lateral			L_Shank_Lateral			L_Ankle_Lateral			L_Heel			L_Toe		
		X1	Y1	Z1	X2	Y2	Z2	X3	Y3	Z3	X4	Y4	Z4	X5	Y5	Z5	X6	Y6	Z6	X7	Y7	Z7	X8	Y8	Z8	X9	Y9	Z9	X10	Y10	Z10	X11	Y11	Z11	X12	Y12	Z12	X13	Y13	Z13	X14	Y14	Z14	X15	Y15	Z15	X16	Y16	Z16	X17	Y17	Z17	X18	Y18	Z18	X19	Y19	Z19	X20	Y20	Z20	X21	Y21	Z21	X22	Y22	Z22	X23	Y23	Z23	X24	Y24	Z24	X25	Y25	Z25
42	0.41000000	-2327.228027	1277.059814	307.948395	-2354.276855	1291.292236	-35.724823	-2424.292236	1345.111938	140.165421	-2290.454102	1253.629150	128.867783	-2409.576660	1001.258545	399.085083	-2306.915039	1019.771362	-150.341309	-2394.868164	764.361908	399.564331	-2106.894409	893.234863	-134.871773	-2299.308594	838.259949	290.634766	-2330.249756	835.913147	-31.651915	-2489.415283	883.793518	152.140640	-2492.033203	1077.567261	139.830597	-2241.223389	1032.050415	125.593323	-2292.481934	525.659973	329.888306	-2177.756592	429.050446	257.678467	-2150.567871	292.609253	314.559784	-2084.484863	64.868195	253.884583	-2115.856201	24.961386	192.788864	-1954.629639	75.095245	251.034073	-2441.199463	543.435120	-51.624836	-2462.311035	415.212982	4.778844	-2538.625488	275.087341	-46.933319	-2646.235840	71.903885	16.020611	-2701.509033	55.562542	70.058784	-2536.058105	34.718174	43.739483
43	0.42000000	-2313.874023	1275.297974	310.429230	-2340.634277	1289.936768	-33.457703	-2411.003174	1343.708130	142.566879	-2276.945312	1252.488403	131.352859	-2394.709961	998.840759	400.896545	-2295.268799	1017.764771	-147.915482	-2380.596191	761.962860	401.185547	-2094.817749	891.748932	-133.398106	-2285.309570	837.650696	293.325195	-2314.936768	833.415833	-28.469952	-2475.502930	882.658630	154.339417	-2478.217773	1076.117798	141.728500	-2227.225098	1030.973389	128.133530	-2275.741943	526.790405	332.339935	-2163.451416	428.389526	258.821808	-2138.609375	290.820587	314.753815	-2079.214600	62.289764	253.452728	-2112.779785	24.188681	192.652542	-1949.482788	67.389694	249.312180	-2427.911133	541.996399	-50.112045	-2449.369385	413.794342	5.681314	-2529.468994	276.003540	-46.466866	-2643.723389	76.279472	15.457670	-2699.444336	61.932236	69.401688	-2535.138916	34.782028	43.410831
44	0.43000000	-2300.450928	1273.900146	313.010681	-2326.788818	1288.934326	-31.108465	-2397.593750	1342.724976	145.045258	-2263.333008	1251.743286	133.997314	-2379.598877	996.734375	402.769409	-2283.982910	1015.974976	-145.380173	-2365.593628	759.890167	402.775925	-2083.536621	889.801514	-131.846306	-2271.197021	837.665649	296.163727	-2299.610352	831.428284	-25.321791	-2461.522461	881.967041	156.556870	-2464.327881	1075.086304	143.602814	-2210.775146	1030.868774	130.127487	-2259.939209	528.042786	334.611816	-2149.629883	428.085480	260.106445	-2126.984131	289.461884	315.055786	-2074.729980	60.121574	253.182571	-2110.655273	24.029564	192.685562	-1945.210571	59.782516	247.720840	-2413.753174	540.590698	-48.519264	-2435.313965	412.390076	6.585560	-2519.281982	277.243561	-46.047253	-2640.406006	81.384499	14.838344	-2696.478271	69.414268	68.695465	-2533.972656	34.835640	43.146904
45	0.44000000	-2286.968750	1272.930908	315.667511	-2312.754639	1288.336670	-28.685263	-2384.084229	1342.211182	147.581924	-2249.644043	1251.444214	136.783478	-2364.266846	995.016479	404.685638	-2273.022705	1014.484924	-142.729706	-2349.866577	758.218536	404.310684	-2073.069458	887.408661	-130.205219	-2257.066162	838.355103	299.102203	-2284.465576	830.049805	-22.313982	-2447.521484	881.741333	158.727020	-2450.416992	1074.523315	145.442566	-2192.659668	1031.567627	131.808136	-2245.157959	529.281372	336.777435	-2136.211182	428.237213	261.534149	-2115.420166	288.676910	315.528839	-2070.818604	58.458755	253.104752	-2109.116943	24.419264	192.924896	-1941.593628	52.796368	246.340637	-2398.680176	539.225647	-46.845776	-2420.017822	410.997437	7.482075	-2507.917969	278.841156	-45.672005	-2636.069092	87.274902	14.190310	-2692.331055	78.076393	68.001862	-2532.490479	34.902580	42.997520
46	0.45000000	-2273.451172	1272.446777	318.370941	-2298.554932	1288.193726	-26.194126	-2370.504150	1342.191162	150.151520	-2235.911133	1251.622314	139.683517	-2348.727051	993.752563	406.628510	-2262.355469	1013.370422	-139.958801	-2333.428101	757.021271	405.780380	-2063.436279	884.604004	-128.465260	-2243.033203	839.720215	302.095825	-2269.663330	829.338806	-19.505362	-2433.544434	881.972168	160.786835	-2436.542236	1074.453369	147.229797	-2173.988037	1032.835938	133.501465	-2231.246582	530.539490	338.987640	-2123.094971	428.857208	263.071198	-2103.777832	288.443726	316.174103	-2067.460449	57.290569	253.172836	-2107.966797	25.176725	193.325653	-1938.590576	46.804951	245.214432	-2382.675293	537.916382	-45.104305	-2403.377441	409.617523	8.351253	-2495.238770	280.818665	-45.334454	-2630.488770	93.995964	13.557341	-2686.701660	87.931671	67.407501	-2530.593018	35.031395	42.981220
47	0.46000000	-2259.934814	1272.487427	321.090363	-2284.227051	1288.541504	-23.638309	-2356.893555	1342.658203	152.725266	-2222.167236	1252.278442	142.656906	-2332.990234	992.991821	408.587646	-2251.948242	1012.688110	-137.065399	-2316.301392	756.362244	407.198410	-2054.648376	881.430969	-126.622295	-2229.203613	841.698425	305.113861	-2255.278320	829.293030	-16.881632	-2419.628906	882.623169	162.694839	-2422.743164	1074.866211	148.953705	-2155.688721	1034.474731	135.457718	-2217.919922	531.949768	341.386688	-2110.268799	429.840607	264.671722	-2092.207275	288.578003	316.954620	-2064.693604	56.550350	253.310684	-2107.101807	26.099087	193.802277	-1936.208740	42.007568	244.360260	-2365.751465	536.679749	-43.320744	-2385.332764	408.258667	9.170447	-2481.133789	283.189484	-45.019135	-2623.446533	101.564552	13.008451	-2679.298340	98.918243	67.023026	-2528.137207	35.313122	43.063358
48	0.47000000	-2246.463867	1273.068848	323.794403	-2269.826904	1289.389282	-21.021355	-2343.299316	1343.575317	155.275970	-2208.448242	1253.383057	145.655533	-2317.072266	992.761047	410.562531	-2241.767334	1012.467041	-134.053299	-2298.518433	756.285736	408.590973	-2046.703064	877.934631	-124.680019	-2215.652100	844.171631	308.139832	-2241.254883	829.835938	-14.345061	-2405.806885	883.642151	164.444427	-2409.038330	1075.719604	150.614258	-2138.270996	1036.359863	137.777756	-2204.895020	533.650085	344.057678	-2097.879150	430.993652	266.312195	-2081.186279	288.846649	317.846527	-2062.519043	56.141151	253.456924	-2106.459473	27.022854	194.274689	-1934.416992	38.429909	243.770111	-2347.952637	535.532227	-41.527149	-2365.885986	406.944122	9.923981	-2465.545410	285.967834	-44.698593	-2614.754883	109.955421	12.633377	-2669.880127	110.885918	66.974770	-2524.920898	35.901905	43.152512
49	0.48000000	-2233.081055	1274.176758	326.452209	-2255.430176	1290.711670	-18.352598	-2329.770752	1344.882568	157.781631	-2194.791016	1254.883301	148.632248	-2300.996582	993.058594	412.562195	-2231.779053	1012.703857	-130.934021	-2280.115601	756.808441	409.974960	-2039.581360	874.154968	-122.652454	-2202.413330	846.992310	311.160950	-2227.431885	830.832703	-11.747460	-2392.105713	884.972717	166.065414	-2395.435791	1076.950317	152.220032	-2121.905762	1038.423218	140.438354	-2192.045166	535.710266	347.009918	-2086.209229	432.103973	268.001648	-2071.342041	289.087646	318.861115	-2060.890137	55.952667	253.579208	-2105.994629	27.840914	194.691101	-1933.143433	35.954395	243.407257	-2329.354004	534.494385	-39.751091	-2345.111572	405.719208	10.613097	-2448.486328	289.173157	-44.331238	-2604.281738	119.097939	12.534620	-2658.300537	123.594772	67.392654	-2520.668213	37.022984	43.116882
50	0.49000000	-2219.816895	1275.766113	329.035675	-2241.129150	1292.452515	-15.653902	-2316.351074	1346.508423	160.226151	-2181.231689	1256.711060	151.545120	-2284.791260	993.851868	414.602203	-2221.950684	1013.362610	-127.726685	-2261.130371	757.915680	411.345718	-2033.252502	870.125305	-120.564026	-2189.486084	850.012451	314.158936	-2213.651367	832.139832	-8.969355	-2378.549805	886.564392	167.614578	-2381.941895	1078.491211	153.789597	-2106.564697	1040.625000	143.343872	-2179.509521	538.094910	350.177216	-2075.576172	433.005188	269.765167	-2063.173828	289.226654	320.020264	-2059.736816	55.884068	253.668289	-2105.671631	28.497101	195.026520	-1932.299561	34.378426	243.222809	-2310.060059	533.598633	-38.005558	-2323.147705	404.654327	11.262224	-2430.038574	292.828217	-43.860859	-2591.968750	128.881516	12.817279	-2644.535400	136.726822	68.395531	-2515.030029	38.956219	42.812218
51	0.50000000	-2206.682129	1277.765015	331.521057	-2227.022705	1294.532837	-12.964190	-2303.071045	1348.381592	162.598328	-2167.800293	1258.794556	154.356796	-2268.485107	995.082336	416.699005	-2212.253418	1014.378174	-124.455826	-2241.603760	759.560577	412.684296	-2027.677307	865.880554	-118.438698	-2176.839844	853.105286	317.108154	-2199.845703	833.649902	-5.985654	-2365.162109	888.378540	169.159760	-2368.562744	1080.283325	155.352295	-2092.117432	1042.934692	146.370499	-2167.672119	540.660522	353.414093	-2066.218750	433.603638	271.620209	-2056.867188	289.226959	321.321320	-2058.980957	55.859848	253.730225	-2105.459961	28.974945	195.274750	-1931.795776	33.474930	243.173767	-2290.200928	532.898560	-36.284527	-2300.174805	403.845795	11.917175	-2410.337402	296.956177	-43.220798	-2577.831055	139.158905	13.572778	-2628.674561	149.905075	70.076004	-2507.598633	41.982697	42.121067
52	0.51000000	-2193.664307	1280.082642	333.888702	-2213.197021	1296.860474	-10.337164	-2289.945801	1350.441528	164.890762	-2154.519531	1261.067261	157.033997	-2252.103027	996.675049	418.864227	-2202.663086	1015.665894	-121.147942	-2221.580933	761.671387	413.970825	-2022.807312	861.470276	-116.285740	-2164.424316	856.175110	319.977936	-2186.042969	835.303650	-2.868932	-2351.960938	890.387146	170.762299	-2355.302002	1082.279175	156.943863	-2078.396973	1045.321899	149.396240	-2156.979980	543.184814	356.518707	-2058.226562	433.875122	273.561249	-2052.278809	289.070801	322.727600	-2058.540771	55.834263	253.780991	-2105.333740	29.286913	195.445114	-1931.548584	33.034561	243.225494	-2269.917236	532.475891	-34.569164	-2276.387451	403.415558	12.632573	-2389.542480	301.571686	-42.341717	-2561.927734	149.732773	14.860723	-2610.879395	162.714539	72.485489	-2497.952881	46.286861	40.997540
53	0.52000000	-2180.731445	1282.621216	336.122833	-2199.712158	1299.342163	-7.832122	-2276.976074	1352.644287	167.098785	-2141.402100	1263.472656	159.549103	-2235.662109	998.549744	421.101318	-2193.160156	1017.135315	-117.828087	-2201.112061	764.167725	415.190491	-2018.582336	856.957275	-114.100250	-2152.182861	859.153931	322.735504	-2172.322021	837.084717	0.251366	-2338.955322	892.567505	172.464188	-2342.164307	1084.440674	158.602127	-2065.239502	1047.758301	152.315399	-2147.699463	545.426819	359.298187	-2051.525635	433.853485	275.555115	-2049.043457	288.776367	324.183655	-2058.337158	55.789646	253.840988	-2105.273438	29.464382	195.560318	-1931.484375	32.886955	243.350494	-2249.339111	532.436951	-32.842854	-2251.974609	403.504272	13.455184	-2367.808105	306.663696	-41.160080	-2544.318604	160.331299	16.694679	-2591.325928	174.729996	75.614342	-2485.729492	51.845943	39.498363
